<svg xmlns="http://www.w3.org/2000/svg" width="176" height="35" fill="none"><path fill="#F11075" d="M21.42 17.275c-1.41-2.172-2.813-4.327-4.223-6.497q.055-.063.113-.12a13.3 13.3 0 0 1 2.916-2.12 13.8 13.8 0 0 1 3.808-1.385c.771-.157 1.55-.25 2.337-.267 3.407-.075 6.459.932 9.11 3.076 2.385 1.927 3.938 4.406 4.71 7.374.178.686.29 1.385.357 2.093.075.794.084 1.589.018 2.382-.238 2.804-1.21 5.328-2.966 7.533-1.87 2.346-4.265 3.916-7.15 4.732a13 13 0 0 1-2.188.415 13.4 13.4 0 0 1-2.397.051c-2.271-.163-4.387-.828-6.328-2.023-1.789-1.102-3.24-2.55-4.385-4.312q-4.284-6.602-8.571-13.204c-1.98-3.04-3.956-6.088-5.936-9.132C.293 5.33.065 4.746.013 4.1c-.076-.984.177-1.877.779-2.664C1.384.664 2.168.188 3.128.068 4.713-.129 5.995.43 6.882 1.766c1.174 1.76 2.304 3.544 3.455 5.314q4.131 6.359 8.264 12.715 1.424 2.19 2.855 4.378c.98 1.497 2.344 2.46 4.096 2.807 2.162.427 4.065-.146 5.67-1.654.992-.935 1.6-2.097 1.846-3.437a6.36 6.36 0 0 0-4.702-7.35 6.1 6.1 0 0 0-2.153-.171c-1.986.216-3.559 1.143-4.703 2.787q-.026.038-.052.075c-.007.01-.013.015-.039.045M41.045 10.442c.028-.048.048-.083.071-.116 1.856-2.864 3.71-5.732 5.57-8.594.63-.97 1.53-1.536 2.671-1.695a3.63 3.63 0 0 1 3.829 2.096c.576 1.251.503 2.485-.24 3.651-.952 1.495-1.925 2.978-2.889 4.465q-2.825 4.36-5.653 8.721c-.03.046-.061.09-.116.167a17.56 17.56 0 0 0-3.243-8.695M75.569 34.79q-.383-.054-.767-.104a11 11 0 0 1-3.49-1.015q-1.078-.527-2.041-1.239c-1.334-.983-2.268-2.276-2.946-3.77-.545-1.202-.87-2.463-1.025-3.771-.11-.919-.149-1.84-.149-2.764 0-5.306-.002-10.613.004-15.92 0-.364.04-.736.108-1.094.1-.517.381-.936.806-1.262.724-.557 1.556-.697 2.437-.661.706.027 1.38.202 2.037.446l.076.028c.396.163.396.163.398.584l.017 16.27c0 .78-.015 1.56-.017 2.339-.002.818.104 1.625.299 2.421.253 1.035.812 1.883 1.569 2.612l.02.018c1.228 1.208 2.736 1.59 4.396 1.41 2.391-.257 4.263-2.008 4.723-4.384.281-1.448.209-2.883-.367-4.25-.734-1.737-2.08-2.768-3.908-3.161a5.7 5.7 0 0 0-2.792.1 4.8 4.8 0 0 0-1.901 1.02c-.051.046-.108.085-.193.15-.006-.12-.012-.206-.012-.293 0-1.703.004-3.406-.006-5.11-.002-.212.063-.315.258-.401a9.9 9.9 0 0 1 3.64-.848c1.53-.057 3.03.11 4.457.675 2.958 1.168 5.028 3.241 6.192 6.204.673 1.713.891 3.497.775 5.328-.09 1.438-.413 2.815-1.016 4.123-1.03 2.232-2.677 3.87-4.836 5.013-1.349.714-2.788 1.114-4.304 1.253-.079.008-.155.034-.234.051q-1.105.003-2.208.002M100.25 34.79c-.248-.033-.493-.075-.741-.1a11.6 11.6 0 0 1-2.743-.624c-3.066-1.109-5.007-3.237-5.736-6.432-.185-.806-.216-1.632-.216-2.458 0-3.344-.022-6.688.013-10.03.01-.928.423-1.707 1.33-2.134.513-.242 1.056-.338 1.616-.346.958-.014 1.864.2 2.725.616q.048.023.095.05c.014.01.025.023.059.052v10.899000000000001c0 .8.067 1.593.308 2.362q.075.23.164.454c.438 1.076 1.225 1.777 2.34 2.084 1.162.32 2.338.33 3.508.045 1.321-.32 2.163-1.173 2.601-2.441a6.4 6.4 0 0 0 .331-1.818c.013-.295.013-.592.013-.887 0-2.822-.002-5.647.004-8.47 0-.294.022-.591.075-.88.183-.974.777-1.586 1.715-1.879.538-.17 1.093-.193 1.649-.16a6.8 6.8 0 0 1 2.185.522c.191.079.262.185.26.401-.008 3.926-.004 7.852-.008 11.778a10.5 10.5 0 0 1-.647 3.631c-.747 2.024-2.12 3.482-4.014 4.475-1.114.584-2.304.932-3.541 1.125-.344.053-.694.079-1.04.12-.069.008-.138.031-.207.05q-1.049-.006-2.098-.005M175.265 15.912q-.03.1-.055.202c-.059.232-.082.482-.181.697-.297.65-.692 1.233-1.297 1.674a6 6 0 0 1-.282-.118c-.879-.396-1.783-.697-2.743-.823-.778-.1-1.555-.114-2.326.04-1.467.289-2.35 1.18-2.686 2.628-.138.598-.171 1.203-.171 1.815.002 3.944.002 7.99.002 11.931v.34c-.212.06-5.37.08-5.832.026-.006-.072-.018-.15-.018-.226 0-4.543-.004-9.19.004-13.733.002-1.371.256-2.693.879-3.924.901-1.784 2.336-2.962 4.196-3.643 1.355-.497 2.761-.669 4.196-.665 1.141.002 2.273.083 3.379.394.57.161 1.122.368 1.628.686.615.39 1.044.923 1.223 1.637.039.155.061.312.09.47q-.007.294-.006.592M142.962 26.299c.041.12.069.222.112.317.539 1.188 1.447 1.984 2.639 2.472.712.291 1.463.423 2.224.478 1.396.102 2.773-.002 4.119-.417.612-.189 1.174-.482 1.747-.761.287-.142.578-.278.892-.43l2.248 4.285c-.047.041-.081.082-.124.11-.92.612-1.878 1.157-2.94 1.485-1.181.366-2.379.663-3.614.795-1.081.116-2.163.165-3.246.09-2.006-.137-3.906-.641-5.61-1.745-2.199-1.422-3.662-3.408-4.352-5.932-.686-2.508-.657-5.027.173-7.496 1.017-3.025 3.034-5.173 5.946-6.473 1.408-.63 2.891-.936 4.431-.987 1.459-.047 2.904.053 4.304.495 1.51.478 2.867 1.222 3.933 2.424 1.083 1.223 1.636 2.653 1.616 4.297a8.3 8.3 0 0 1-.319 2.255c-.261.895-.755 1.636-1.441 2.258-.779.704-1.699 1.156-2.684 1.489a18 18 0 0 1-3.4.767c-1.771.236-3.553.271-5.338.25-.358-.005-.716-.026-1.074-.038-.071 0-.14.008-.242.012m-.366-4.4c.122.014.201.027.28.03 1.763.021 3.527.076 5.285-.15.875-.112 1.725-.313 2.525-.7.617-.3.999-.773 1.066-1.472.078-.792-.108-1.485-.808-1.949a4.2 4.2 0 0 0-1.265-.578 6.25 6.25 0 0 0-2.69-.102c-1.528.279-2.749 1.032-3.567 2.383a6 6 0 0 0-.751 2.028c-.028.16-.045.317-.075.51M131.518 19.008c-.281-.223-.537-.449-.816-.637-.751-.51-1.597-.801-2.47-1.021-1.282-.325-2.582-.516-3.905-.516-.834 0-1.666.046-2.48.256-.419.108-.824.254-1.158.54-.419.36-.562.817-.448 1.354.084.4.342.663.694.84.517.26 1.07.415 1.638.498 1.071.155 2.147.293 3.221.436 1.303.175 2.613.317 3.881.693.968.287 1.888.668 2.739 1.217 1.267.817 2.047 1.955 2.323 3.436.234 1.257.167 2.5-.26 3.71-.401 1.139-1.111 2.058-2.043 2.81-1.089.882-2.342 1.407-3.693 1.726-1.431.338-2.884.41-4.349.401-2.24-.018-4.421-.397-6.556-1.05-1.062-.325-2.102-.718-3.072-1.273a4.2 4.2 0 0 1-.867-.669l2.313-4.107c.094.067.177.118.251.18.407.332.873.558 1.359.75 1.276.506 2.586.904 3.943 1.128 1.492.246 2.991.328 4.495.132.588-.077 1.162-.22 1.699-.484.358-.175.653-.417.755-.824a1.68 1.68 0 0 0-.091-1.13 1.1 1.1 0 0 0-.444-.487c-.531-.327-1.119-.482-1.723-.573-.849-.13-1.704-.22-2.556-.328-1.18-.15-2.373-.218-3.537-.484-1.141-.26-2.236-.643-3.243-1.253a5.32 5.32 0 0 1-2.287-2.797c-.639-1.754-.572-3.509.201-5.206.609-1.34 1.655-2.278 2.951-2.943.958-.492 1.982-.773 3.034-.966 1.579-.289 3.17-.31 4.767-.236 1.048.05 2.09.148 3.121.346 1.032.201 2.035.494 2.963 1.006.411.226.79.493 1.111.838.767.82.932 1.931.442 2.94a4 4 0 0 1-1.05 1.312 2.3 2.3 0 0 1-.853.435"/></svg>