<svg xmlns="http://www.w3.org/2000/svg" width="141" height="28" fill="none"><path fill="#fff" d="M17.17 13.99c-1.13-1.754-2.253-3.495-3.384-5.247q.044-.05.09-.097a10.996 10.996 0 0 1 5.391-2.83 10.5 10.5 0 0 1 1.873-.217c2.732-.06 5.179.753 7.304 2.485 1.912 1.556 3.157 3.558 3.775 5.955.143.555.233 1.119.287 1.69.06.642.068 1.284.014 1.924-.19 2.266-.97 4.304-2.377 6.085-1.5 1.895-3.42 3.163-5.732 3.822a10.5 10.5 0 0 1-1.754.335 10.984 10.984 0 0 1-6.994-1.593c-1.435-.89-2.598-2.059-3.516-3.482q-3.434-5.333-6.871-10.665Q2.896 8.47.516 4.78a3.05 3.05 0 0 1-.505-1.43A3.06 3.06 0 0 1 .635 1.2C1.109.574 1.738.189 2.508.093c1.27-.159 2.298.292 3.009 1.37.941 1.423 1.847 2.864 2.77 4.293q3.31 5.136 6.625 10.27 1.14 1.77 2.289 3.535c.785 1.21 1.879 1.988 3.284 2.267 1.732.345 3.258-.117 4.544-1.336.796-.754 1.283-1.693 1.48-2.775.497-2.72-1.18-5.28-3.769-5.937a4.8 4.8 0 0 0-1.726-.138c-1.592.175-2.853.923-3.77 2.251q-.021.03-.041.06zM32.905 8.471c.022-.038.038-.067.056-.094q2.231-3.471 4.466-6.94a2.93 2.93 0 0 1 2.141-1.37 2.906 2.906 0 0 1 3.07 1.694c.461 1.01.403 2.006-.193 2.948-.763 1.208-1.543 2.405-2.316 3.606q-2.264 3.522-4.532 7.044l-.093.135a14.25 14.25 0 0 0-2.6-7.023M60.662 27.959q-.308-.045-.614-.084a8.8 8.8 0 0 1-2.799-.82 10.5 10.5 0 0 1-1.636-1c-1.069-.795-1.817-1.839-2.361-3.046a10.3 10.3 0 0 1-.821-3.046 19 19 0 0 1-.12-2.232c0-4.286-.002-8.572.003-12.858 0-.294.032-.594.087-.883.08-.418.305-.756.646-1.02.58-.45 1.247-.562 1.953-.534.566.023 1.107.164 1.633.36q.03.012.062.023c.316.132.316.132.318.472l.014 13.141c0 .63-.012 1.26-.014 1.889-.002.66.084 1.312.24 1.955.203.836.65 1.52 1.258 2.11l.015.014c.986.976 2.195 1.284 3.525 1.14 1.917-.209 3.418-1.623 3.787-3.542.225-1.169.167-2.329-.295-3.433-.588-1.402-1.668-2.235-3.133-2.553a4.55 4.55 0 0 0-2.238.082c-.567.162-1.08.43-1.524.824-.041.037-.087.068-.155.12-.004-.096-.01-.166-.01-.236 0-1.376.004-2.751-.004-4.127-.002-.172.05-.254.207-.324a7.9 7.9 0 0 1 2.917-.685c1.227-.046 2.43.089 3.574.545 2.37.944 4.03 2.618 4.964 5.01.54 1.384.714 2.825.621 4.304a9.3 9.3 0 0 1-.815 3.33c-.826 1.803-2.145 3.126-3.876 4.05a9 9 0 0 1-3.45 1.011c-.064.006-.125.027-.188.041q-.886.002-1.77.002M80.449 27.959c-.199-.027-.396-.06-.595-.081a9.2 9.2 0 0 1-2.199-.504c-2.457-.896-4.013-2.615-4.598-5.195-.148-.65-.173-1.318-.173-1.985 0-2.701-.018-5.402.01-8.1.009-.75.34-1.38 1.066-1.724a3.1 3.1 0 0 1 1.296-.28 4.8 4.8 0 0 1 2.185.497l.076.042.047.04v8.804c0 .646.054 1.286.247 1.907q.06.187.131.367c.352.87.982 1.435 1.876 1.683a5.5 5.5 0 0 0 2.812.036c1.06-.259 1.734-.947 2.086-1.971.164-.475.241-.968.265-1.468.01-.238.01-.478.01-.717q-.001-3.42.004-6.84c0-.238.017-.478.06-.712.146-.786.622-1.28 1.374-1.517.432-.137.877-.156 1.323-.129.607.037 1.189.19 1.751.421.153.064.21.15.208.324-.006 3.171-.003 6.342-.006 9.513a8.5 8.5 0 0 1-.519 2.933c-.599 1.634-1.699 2.811-3.217 3.614-.894.471-1.847.753-2.839.908-.276.043-.556.064-.834.097-.055.007-.11.026-.165.04q-.842-.004-1.682-.003M140.586 12.712a3 3 0 0 0-.045.163c-.047.188-.066.39-.145.563-.238.525-.554.996-1.04 1.351-.071-.028-.15-.06-.225-.095-.705-.32-1.43-.562-2.199-.664-.625-.08-1.247-.092-1.865.032-1.176.233-1.884.953-2.154 2.122-.11.483-.137.973-.137 1.467.002 3.185.002 6.453.002 9.636v.275c-.17.048-4.305.063-4.676.02-.004-.058-.014-.12-.014-.182 0-3.67-.003-7.422.003-11.092.002-1.107.205-2.175.705-3.17.722-1.44 1.873-2.392 3.364-2.941 1.086-.402 2.213-.54 3.364-.537.914.001 1.822.067 2.708.318.457.13.9.297 1.305.554.494.315.837.745.981 1.322.031.125.049.252.072.38q-.005.237-.004.478M114.689 21.1c.033.098.055.18.09.257.431.96 1.16 1.602 2.115 1.997.571.235 1.173.341 1.783.386 1.119.082 2.223-.002 3.302-.337.491-.153.941-.39 1.4-.615.23-.114.464-.224.716-.346l1.802 3.46c-.038.033-.065.066-.1.089-.737.494-1.505.934-2.356 1.199-.948.295-1.908.535-2.898.642-.867.093-1.734.133-2.602.073-1.608-.111-3.131-.518-4.498-1.41-1.762-1.148-2.935-2.752-3.488-4.79-.55-2.026-.527-4.061.139-6.055.815-2.443 2.432-4.178 4.766-5.228 1.129-.508 2.318-.756 3.552-.797 1.17-.038 2.328.043 3.451.4 1.21.386 2.298.986 3.152 1.957.869.988 1.312 2.143 1.296 3.471a6.8 6.8 0 0 1-.255 1.82 3.9 3.9 0 0 1-1.156 1.825c-.624.568-1.362.934-2.151 1.202-.888.3-1.799.496-2.726.62-1.42.19-2.848.219-4.28.201-.287-.003-.574-.02-.86-.03-.057 0-.112.007-.194.01m-.294-3.553c.098.011.161.022.224.024 1.414.017 2.828.062 4.238-.12.701-.091 1.382-.253 2.024-.566.495-.242.8-.625.854-1.189.063-.64-.087-1.199-.648-1.574a3.3 3.3 0 0 0-1.013-.467 5 5 0 0 0-2.157-.083c-1.225.226-2.204.834-2.859 1.926a4.9 4.9 0 0 0-.603 1.638c-.022.128-.036.255-.06.411M105.515 15.212c-.225-.18-.43-.362-.654-.515-.602-.411-1.28-.646-1.98-.824a12.6 12.6 0 0 0-3.13-.416c-.67 0-1.336.036-1.989.206-.335.087-.66.205-.928.437-.336.29-.45.66-.36 1.093.068.322.275.535.557.678.415.21.857.335 1.313.402.86.126 1.721.237 2.582.353 1.045.141 2.095.256 3.112.559.775.232 1.513.54 2.196.983 1.015.66 1.641 1.58 1.861 2.776.188 1.015.134 2.019-.208 2.996-.321.92-.89 1.662-1.637 2.27-.874.712-1.878 1.136-2.961 1.393-1.147.273-2.312.332-3.487.324-1.795-.014-3.544-.32-5.255-.848-.852-.262-1.685-.58-2.463-1.028a3.3 3.3 0 0 1-.695-.54l1.854-3.317c.076.054.142.095.202.144.326.269.7.452 1.089.607 1.023.409 2.073.73 3.16.91 1.197.2 2.398.266 3.604.107a4.3 4.3 0 0 0 1.362-.39c.287-.142.524-.338.605-.666.078-.312.06-.618-.072-.912a.9.9 0 0 0-.356-.394c-.426-.264-.897-.39-1.381-.463-.681-.104-1.367-.178-2.05-.265-.945-.12-1.902-.176-2.835-.39-.915-.21-1.793-.52-2.6-1.013a4.3 4.3 0 0 1-1.833-2.259c-.512-1.417-.459-2.834.16-4.205.49-1.082 1.328-1.84 2.367-2.376.767-.397 1.589-.625 2.432-.78 1.266-.234 2.541-.251 3.821-.19.84.039 1.676.118 2.502.279.828.162 1.631.398 2.376.811.329.183.633.4.89.677.615.663.747 1.56.355 2.375a3.2 3.2 0 0 1-.842 1.06 1.8 1.8 0 0 1-.684.35"/></svg>